<svg width="36" height="36" viewBox="0 0 36 36" fill="none" xmlns="http://www.w3.org/2000/svg">
<path d="M9.19531 24.2V23.2L10.5953 22C13.5953 19 14.9953 17.6 14.9953 15.8C14.9953 14.6 14.3953 13.4 12.5953 13.4C11.5953 13.4 10.5953 14 9.99531 14.4L9.59531 13.2C10.3953 12.6 11.5953 12 12.9953 12C15.5953 12 16.5953 13.8 16.5953 15.4C16.5953 17.6 14.9953 19.4 12.3953 21.8L11.3953 22.6H16.9953V24H9.19531V24.2Z" fill="#53565A" stroke="#53565A" stroke-width="0.4" stroke-miterlimit="10"/>
<path d="M23.7953 24.2032V21.0032H18.1953V19.8031L23.5953 12.2031H25.3953V19.6031H26.9953V20.8032H25.3953V24.0032H23.7953V24.2032ZM23.7953 19.6031V15.6031C23.7953 15.0031 23.7953 14.4031 23.7953 13.8031C23.3953 14.6031 23.1953 15.0031 22.7953 15.6031L19.7953 19.6031H23.7953Z" fill="#53565A" stroke="#53565A" stroke-width="0.4" stroke-miterlimit="10"/>
<mask id="mask0_2625_15378" style="mask-type:luminance" maskUnits="userSpaceOnUse" x="2" y="3" width="32" height="30">
<path d="M10.6 33C5.4 30.4172 2 25.053 2 18.894C2 10.1523 9.2 3 18 3C26.8 3 34 10.1523 34 18.894C34 25.053 30.6 30.2186 25.6 32.8014" fill="white"/>
</mask>
<g mask="url(#mask0_2625_15378)">
<path d="M9.71032 34.7912C10.6996 35.2826 11.8999 34.879 12.3912 33.8896C12.8826 32.9004 12.4789 31.7002 11.4897 31.2088L9.71032 34.7912ZM24.6822 31.0244C23.7008 31.5314 23.3162 32.7378 23.823 33.7192C24.33 34.7006 25.5366 35.0852 26.5178 34.5782L24.6822 31.0244ZM11.4897 31.2088C6.97704 28.9674 4 24.3016 4 18.894H0C0 25.8044 3.82296 31.867 9.71032 34.7912L11.4897 31.2088ZM4 18.894C4 11.2694 10.292 5 18 5V1C8.10798 1 0 9.03524 0 18.894H4ZM18 5C25.708 5 32 11.2694 32 18.894H36C36 9.03524 27.892 1 18 1V5ZM32 18.894C32 24.283 29.0372 28.7748 24.6822 31.0244L26.5178 34.5782C32.1628 31.6624 36 25.823 36 18.894H32Z" fill="#53565A"/>
</g>
<path d="M25 28V33H30" stroke="#53565A" stroke-width="2" stroke-miterlimit="10" stroke-linecap="round"/>
</svg>
